<svg width="840" height="840" viewBox="0 0 840 840" fill="none" xmlns="http://www.w3.org/2000/svg">
<circle cx="420" cy="420" r="420" fill="white"/>
<path d="M227.349 561.409L257.237 520.433L322.317 555.815L308.337 575.574L294.357 595.792L279.895 614.173L269.771 624.282L259.165 625.661L231.687 628.418L206.619 627.039L195.05 624.282L190.229 620.606L195.05 610.037L206.619 589.819L227.349 561.409Z" fill="#2AC7B4" stroke="#2AC7B4" stroke-width="2.89245"/>
<path d="M540.737 621.11L549.526 594.317L608.607 579.728L613.49 583.153L608.607 594.317L592.982 627.809L553.92 632.274L536.358 629.988L540.737 621.11Z" fill="#2AC7B4" stroke="#2AC7B4" stroke-width="2.89245"/>
<path d="M233.615 347.368L243.739 370.989C277.484 463.548 345.939 528.146 457.78 561.891C547.253 588.887 634.541 562.534 667.001 545.983L694.479 592.262L721.475 641.916L718.583 646.736H657.841L631.327 608.652L612.044 579.246L591.797 586.477C580.87 588.887 556.316 593.708 545.518 593.708C532.02 593.708 494.9 591.298 487.187 591.78C481.016 592.165 462.44 589.369 453.924 587.923L451.031 589.852C456.816 601.743 471.664 637.963 473.207 641.434C475.135 645.772 472.243 644.326 470.314 646.254C462.601 648.665 446.693 650.593 434.159 650.593C424.132 650.593 406.841 647.218 399.449 645.29L375.345 601.903C371.971 595.315 363.486 579.921 356.545 571.051C329.548 565.748 255.309 517.54 237.954 503.56C225.227 499.318 149.734 431.731 114.061 396.057C103.134 383.684 80.0264 355.467 75.0128 341.583C68.7458 324.228 63.4716 313.623 67.2997 299.16C71.6382 282.77 80.9584 271.682 88.993 267.343C95.26 263.326 112.422 255.87 130.934 258.184C149.445 260.498 162.108 265.254 166.125 267.343C173.356 271.843 190.325 283.734 200.352 295.304C210.379 306.873 226.706 334.834 233.615 347.368Z" fill="#2AC7B4" stroke="#2AC7B4" stroke-width="2.89245"/>
<path d="M677.124 558.517L669.411 544.537L710.869 519.469L751.364 499.222L732.563 519.469L710.869 537.788L694.961 549.84L677.124 558.517Z" fill="#2AC7B4" stroke="#2AC7B4" stroke-width="2.89245"/>
<path d="M679.052 560.445C717.136 544.055 761.781 491.399 753.774 495.847C740.758 503.079 728.224 509.828 709.423 518.987" stroke="#2AC7B4" stroke-width="2.89245"/>
<path d="M549.609 593.009C544.77 608.419 534.365 627.186 535.477 630.136C536.928 633.988 592.29 631.983 594.71 629.231C596.645 627.03 608.486 596.861 614.454 583.103" stroke="#2AC7B4" stroke-width="2.89245"/>
<path d="M259.071 517.541C239.76 543.607 205.483 585.544 190.999 614.812C187.421 622.043 190.034 623.501 192.93 624.872C202.215 629.27 260.472 629.918 270.618 624.872C278.734 620.836 309.751 577.933 324.245 556.986" stroke="#2AC7B4" stroke-width="2.89245"/>
<circle cx="143.467" cy="296.268" r="11.5698" fill="#020202" stroke="#020202" stroke-width="2.89245"/>
<path d="M246.149 373.882C208.548 279.878 164.808 264.555 153.109 261.077C135.272 255.774 116.471 256.449 101.045 261.077C89.4751 264.547 76.0325 270.718 69.71 285.662C61.552 304.945 63.4188 322.258 79.8336 351.225C88.029 365.687 110.687 395.093 136.719 421.125C162.751 447.157 217.429 491.682 239.882 507.899C265.915 526.7 312.676 556.106 358.473 572.979M667.965 544.055C680.981 559.963 714.812 627.142 718.583 634.685C723.404 644.326 723.886 646.736 718.583 648.183C713.28 649.629 665.555 649.629 657.842 648.183C651.671 647.026 623.614 599.975 612.044 580.21C601.921 585.834 567.018 596.504 508.398 594.19C487.989 593.385 468.888 591.794 451.513 589.803" stroke="#2AC7B4" stroke-width="2.89245"/>
<g style="mix-blend-mode:overlay" opacity="0.7">
<path d="M254.827 608.653C226.385 622.633 194.085 617.33 189.265 615.402C188.783 616.366 186.372 620.223 188.783 623.597C193.121 631.792 255.791 630.828 271.217 626.489C275.496 625.286 317.497 571.533 323.764 559.481C322.317 558.999 303.034 548.393 297.25 545.501C293.393 552.25 277.266 597.623 254.827 608.653Z" fill="#101C39"/>
<path d="M93.3318 373.4C102.009 378.221 138.647 417.751 177.695 416.305C191.193 435.588 218.189 499.98 348.349 555.419C353.306 567.456 356.61 573.41 356.995 573.933C357.005 573.936 357.016 573.94 357.027 573.943C357.04 573.983 357.029 573.979 356.995 573.933C305.386 557.036 164.664 473.651 93.3318 373.4Z" fill="#101C39"/>
</g>
<path d="M345.457 547.429C348.349 554.66 394.146 642.88 399.449 646.737C403.773 649.881 449.103 653.803 469.35 648.183C473.688 646.979 476.077 646.099 474.653 641.916C471.179 631.711 452.477 590.495 440.425 567.194" stroke="#2AC7B4" stroke-width="2.89245"/>
<g style="mix-blend-mode:overlay" opacity="0.7">
<path d="M533.551 630.668C532.45 629.96 543.362 606.891 548.41 596.119C565.765 596.119 598.064 585.995 609.151 580.21C610.598 583.585 611.562 585.031 613.008 587.442C613.008 587.442 597.902 623.667 594.689 629.864C578.167 635.176 534.928 631.554 533.551 630.668Z" fill="#101C39"/>
<path d="M556.123 570.569C375.827 582.621 284.715 445.229 280.376 439.445C337.84 529.689 412.465 557.071 439.461 562.856L453.441 591.78C462.761 593.548 493.261 595.733 542.625 594.191C572.996 592.262 592.755 587.927 607.223 580.21C614.454 576.354 608.669 559.481 682.427 559.481C713.28 544.055 735.55 523.592 756.184 497.294C758.149 494.79 745.097 506.453 735.455 511.274C729.177 514.413 724.367 514.648 721.475 512.238C717.384 508.829 618.793 561.892 556.123 570.569Z" fill="#101C39"/>
<path d="M444.764 635.066C436.087 643.261 398.967 637.958 392.7 636.512C393.503 637.637 396.557 644.225 400.413 648.564C443.318 657.241 476.099 650.974 476.581 645.672C476.835 642.876 452.477 591.197 439.943 565.647L417.286 558.416C407.644 555.202 390.29 544.537 390.29 544.537C390.29 545.116 409.09 567.189 414.393 574.324C427.409 591.84 451.706 628.51 444.764 635.066Z" fill="#101C39"/>
<path d="M661.216 596.119C659.354 591.154 652.056 577.07 640.486 561.644L680.499 559.481L714.244 624.079C719.065 632.275 724.85 645.773 723.403 649.147C721.792 652.907 657.841 650.111 654.467 649.147C651.767 648.376 635.505 625.847 630.845 617.812C633.255 620.383 645.307 628.418 655.913 625.043C667.965 620.223 664.108 603.832 661.216 596.119Z" fill="#101C39"/>
<path d="M533.551 630.668C532.45 629.96 543.362 606.891 548.41 596.119C565.765 596.119 598.064 585.995 609.151 580.21C610.598 583.585 611.562 585.031 613.008 587.442C613.008 587.442 597.902 623.667 594.689 629.864C578.167 635.176 534.928 631.554 533.551 630.668Z" stroke="#101C39" stroke-width="2.89245"/>
<path d="M556.123 570.569C375.827 582.621 284.715 445.229 280.376 439.445C337.84 529.689 412.465 557.071 439.461 562.856L453.441 591.78C462.761 593.548 493.261 595.733 542.625 594.191C572.996 592.262 592.755 587.927 607.223 580.21C614.454 576.354 608.669 559.481 682.427 559.481C713.28 544.055 735.55 523.592 756.184 497.294C758.149 494.79 745.097 506.453 735.455 511.274C729.177 514.413 724.367 514.648 721.475 512.238C717.384 508.829 618.793 561.892 556.123 570.569Z" stroke="#101C39" stroke-width="2.89245"/>
<path d="M444.764 635.066C436.087 643.261 398.967 637.958 392.7 636.512C393.503 637.637 396.557 644.225 400.413 648.564C443.318 657.241 476.099 650.974 476.581 645.672C476.835 642.876 452.477 591.197 439.943 565.647L417.286 558.416C407.644 555.202 390.29 544.537 390.29 544.537C390.29 545.116 409.09 567.189 414.393 574.324C427.409 591.84 451.706 628.51 444.764 635.066Z" stroke="#101C39" stroke-width="2.89245"/>
<path d="M661.216 596.119C659.354 591.154 652.056 577.07 640.486 561.644L680.499 559.481L714.244 624.079C719.065 632.275 724.85 645.773 723.403 649.147C721.792 652.907 657.841 650.111 654.467 649.147C651.767 648.376 635.505 625.847 630.845 617.812C633.255 620.383 645.307 628.418 655.913 625.043C667.965 620.223 664.108 603.832 661.216 596.119Z" stroke="#101C39" stroke-width="2.89245"/>
</g>
<path d="M246.274 368.8C250.957 364.291 254.937 361.887 258.947 360.573C262.985 359.25 267.16 358.994 272.35 358.948C273.803 358.935 275.119 359.888 275.6 361.317C290.397 405.256 322.729 443.686 360.655 472.794C398.581 501.903 442.226 521.785 479.813 528.537C559.701 542.89 633.357 534.235 690.478 493.906C691.614 493.104 693.067 493.056 694.138 493.764C699.512 497.313 702.696 500.665 704.846 504.307C707.012 507.977 708.186 512.035 709.41 517.144C709.727 518.467 709.203 519.847 708.092 520.619C642.67 566.084 554.791 583.517 464.599 562.032C359.324 536.955 274.125 459.265 245.501 372.039C245.119 370.876 245.422 369.62 246.274 368.8Z" fill="#A8450C" stroke="#A8450C" stroke-width="2.89245"/>
<g style="mix-blend-mode:overlay">
<path d="M692.069 491.508C707.495 496.811 710.77 516.203 710.288 518.613C709.806 521.023 708.879 521.175 705.091 523.81C685.17 537.668 623.063 572.999 540.521 572.315C499.38 571.974 467.866 564.718 441.779 556.724C397.858 543.265 370.119 524.047 343.529 505.489L354.134 511.756C393.182 534.895 417.286 548.806 463.565 557.071C579.706 577.81 654.949 555.142 692.069 491.508Z" fill="#5246DD"/>
<path d="M692.069 491.508C707.495 496.811 710.77 516.203 710.288 518.613C709.806 521.023 708.879 521.175 705.091 523.81C685.17 537.668 623.063 572.999 540.521 572.315C499.38 571.974 467.866 564.718 441.779 556.724C397.858 543.265 370.119 524.047 343.529 505.489L354.134 511.756C393.182 534.895 417.286 548.806 463.565 557.071C579.706 577.81 654.949 555.142 692.069 491.508Z" stroke="#5246DD" stroke-width="0.96415"/>
</g>
<path d="M571.066 351.822L571.072 351.817C580.216 344.773 584.811 335.833 585.546 325.893C586.28 315.97 583.166 305.092 576.98 294.141C564.611 272.239 539.892 249.912 508.597 234.063C445.926 202.325 384.825 231.757 371.507 269.015C355.319 314.299 376.984 365.6 434.287 411.334C450.81 424.521 478.146 439.473 502.532 446.878C544.695 459.681 579.919 459.861 608.073 449.042C636.236 438.218 657.255 416.414 671.048 385.387L671.059 385.363L671.067 385.338C688.977 329.878 659.305 248.983 583.131 204.124C632.805 225.709 670.198 263.074 691.882 303.603C714.664 346.186 720.071 392.192 704.264 427.038C672.626 496.787 570.456 533.113 465.647 492.078C438.11 481.296 408.62 467.3 379.535 444.113C344.065 415.836 312.356 379.255 294.455 339.304C276.56 299.367 272.473 256.084 292.185 214.331C311.469 179.145 345.895 160.155 386.219 155.965C426.557 151.774 472.778 162.401 515.541 186.442C558.288 210.475 590.012 246.612 606.489 282.246C622.98 317.908 624.146 352.917 606.065 374.843C591.929 391.987 566.603 400.785 541.614 395.496C517.183 390.325 493.032 371.674 480.047 334.08C504.856 362.558 543.957 372.008 571.066 351.822Z" fill="#FFAF45" stroke="#FFAF45"/>
<g style="mix-blend-mode:overlay">
<path d="M374 337C372.884 335.263 371.806 332.865 370.846 329.943C359.795 302.996 348.3 250.067 387.5 223C426 196.417 478 218 499.5 230.5C481.167 225.167 426 215.6 396 238C363.152 262.527 364.064 309.306 370.846 329.943C371.917 332.555 372.984 334.923 374 337Z" fill="#5246DD"/>
<path d="M374 337C372.884 335.263 371.806 332.865 370.846 329.943C359.795 302.996 348.3 250.067 387.5 223C426 196.417 478 218 499.5 230.5C481.167 225.167 426 215.6 396 238C363.152 262.527 364.064 309.306 370.846 329.943C371.917 332.555 372.984 334.923 374 337Z" stroke="#5246DD"/>
</g>
<g style="mix-blend-mode:overlay">
<path d="M598.775 361.691C575.297 391.389 533.071 390.325 502.5 373C523 396.5 569.26 410.754 601.413 379.671C646.587 336 594.5 259.5 594.5 259.5C622.303 317 615.897 340.032 598.775 361.691Z" fill="#5246DD"/>
<path d="M598.775 361.691C575.297 391.389 533.071 390.325 502.5 373C523 396.5 569.26 410.754 601.413 379.671C646.587 336 594.5 259.5 594.5 259.5C622.303 317 615.897 340.032 598.775 361.691Z" stroke="#5246DD"/>
</g>
<g style="mix-blend-mode:overlay">
<path d="M644.482 488.621C511.5 552 389 464.5 329.5 397C400.5 468.248 537.273 517.216 630.382 468.248C721.38 420.39 697.903 327.383 680.054 273.906C715.729 327.663 746.054 440.211 644.482 488.621Z" fill="#5246DD"/>
<path d="M644.482 488.621C511.5 552 389 464.5 329.5 397C400.5 468.248 537.273 517.216 630.382 468.248C721.38 420.39 697.903 327.383 680.054 273.906C715.729 327.663 746.054 440.211 644.482 488.621Z" stroke="#5246DD"/>
</g>
<path d="M351.892 190.029L329.11 162.422L492.942 316.369L474.41 329.289L351.892 190.029Z" fill="#1F4955" stroke="#1F4955" stroke-width="2.89245"/>
<path d="M473.367 330.167C422.165 276.725 326.091 162.646 324.282 156.684C322.473 150.721 381.896 212.452 492.586 314.887" stroke="#1F4955" stroke-width="2.89245"/>
<path d="M634.365 292.786L521.18 318.679L526.331 339.097C562.89 331.876 637.827 317.877 645.103 319.647C645.321 325.056 646.601 338.665 647.213 344.793C682.552 325.155 751.801 285.256 746.091 282.763C740.381 280.27 665.602 270.608 628.927 266.089L636.924 288.042L634.365 292.786Z" fill="#1F4955" stroke="#1F4955" stroke-width="2.89245"/>
<path d="M521.202 341.177C575.036 330.147 637.256 317.622 641.733 320.505C647.537 324.241 641.738 347.943 647.188 345.886C652.637 343.828 747.679 287.235 746.986 282.465C745.742 277.807 635.109 264.25 629.29 264.507C623.471 264.765 638.144 284.261 634.284 289.983C631.306 294.397 569.188 307.418 515.366 318.506" stroke="#1F4955" stroke-width="2.89245"/>
<g style="mix-blend-mode:overlay" opacity="0.8">
<path d="M707.017 298.426C714.862 294.329 741.211 284.54 723.654 275.311C736.774 277.327 748.649 278.019 748.966 283.334C749.202 287.303 698.541 317.615 673.638 332.594C658.927 340.335 651.519 345.892 647.619 347.217C646.157 347.714 644.728 347.127 643.81 345.651C641.925 340.92 644.877 326.875 641.173 321.936C639.536 319.754 584.502 329.655 557.815 334.772L649.574 315.445C663.843 311.549 699.99 302.095 707.017 298.426Z" fill="#5246DD"/>
</g>
<g style="mix-blend-mode:overlay" opacity="0.8">
<path d="M452.953 310.283C459.052 315.778 469.385 318.512 474.591 312.404C478.81 307.454 474.697 297.494 467.472 289.616L461.955 284.518C463.92 286.043 465.781 287.773 467.472 289.616L486.802 307.479L472.545 331.632L452.953 310.283Z" fill="#5246DD"/>
</g>
<path d="M525.285 341.181C520.302 354.308 504.985 360.805 490.979 355.488C476.972 350.172 469.824 335.148 474.806 322.021C479.789 308.894 495.106 302.398 509.113 307.714C523.119 313.031 530.267 328.055 525.285 341.181Z" fill="#2AC7B4" stroke="#2AC7B4" stroke-width="2.89245"/>
<g style="mix-blend-mode:overlay">
<path d="M522.59 346.588C514.751 358.181 497.241 360.721 484.79 352.302C482.173 350.532 480.028 348.322 478.291 345.864C479.884 346.724 481.654 347.471 483.512 348.084C488.494 349.726 494.399 350.496 499.903 349.757C505.48 349.009 512.367 345.905 517.193 339.961C521.239 334.978 523.766 328.088 522.959 319.128C524.016 320.779 524.977 322.729 525.916 325.542C526.803 328.195 527.063 331.869 526.531 335.724C526.001 339.569 524.7 343.468 522.59 346.588Z" fill="#101C39"/>
<path d="M522.59 346.588C514.751 358.181 497.241 360.721 484.79 352.302C482.173 350.532 480.028 348.322 478.291 345.864C479.884 346.724 481.654 347.471 483.512 348.084C488.494 349.726 494.399 350.496 499.903 349.757C505.48 349.009 512.367 345.905 517.193 339.961C521.239 334.978 523.766 328.088 522.959 319.128C524.016 320.779 524.977 322.729 525.916 325.542C526.803 328.195 527.063 331.869 526.531 335.724C526.001 339.569 524.7 343.468 522.59 346.588Z" stroke="#101C39" stroke-width="2.89245"/>
</g>
</svg>
